<svg
      xmlns="http://www.w3.org/2000/svg"
      xmlns:xlink="http://www.w3.org/1999/xlink"
      viewBox="300 180 1280 720"
    >
      <defs>
        <path d="M4415.51-1502.77L532.2 148.75" id="a"/>
        <path d="M5297.44-1541.24L1536.54 58.22" id="b"/>
        <path d="M4962.11-1062.93l-5158.4 2193.81" id="c"/>

        <path
          d="M-879.35 1014.18c40.98-17.41 88.31 1.69 105.72 42.67 6.3 14.84-6.31-14.84 0 0 17.41 40.97-1.7 88.3-42.67 105.71-211.58 89.9-772.14 328.07-983.72 417.97-40.97 17.41-88.3-1.69-105.71-42.67-6.31-14.84 6.3 14.84 0 0-17.41-40.97 1.69-88.3 42.66-105.71 211.59-89.9 772.14-328.07 983.72-417.97z"
          id="e"
        />
        <path
          d="M-879.35 1014.18c40.98-17.41 88.31 1.69 105.72 42.67 6.3 14.84-6.31-14.84 0 0 17.41 40.97-1.7 88.3-42.67 105.71-211.58 89.9-772.14 328.07-983.72 417.97-40.97 17.41-88.3-1.69-105.71-42.67-6.31-14.84 6.3 14.84 0 0-17.41-40.97 1.69-88.3 42.66-105.71 211.59-89.9 772.14-328.07 983.72-417.97z"
          id="e1"
        />
        <path
          d="M-879.35 1014.18c40.98-17.41 88.31 1.69 105.72 42.67 6.3 14.84-6.31-14.84 0 0 17.41 40.97-1.7 88.3-42.67 105.71-211.58 89.9-772.14 328.07-983.72 417.97-40.97 17.41-88.3-1.69-105.71-42.67-6.31-14.84 6.3 14.84 0 0-17.41-40.97 1.69-88.3 42.66-105.71 211.59-89.9 772.14-328.07 983.72-417.97z"
          id="e2"
        />
        <path
          d="M-879.35 1014.18c40.98-17.41 88.31 1.69 105.72 42.67 6.3 14.84-6.31-14.84 0 0 17.41 40.97-1.7 88.3-42.67 105.71-211.58 89.9-772.14 328.07-983.72 417.97-40.97 17.41-88.3-1.69-105.71-42.67-6.31-14.84 6.3 14.84 0 0-17.41-40.97 1.69-88.3 42.66-105.71 211.59-89.9 772.14-328.07 983.72-417.97z"
          id="e3"
        />
        <path
          d="M-204.54 519.62c40.94-17.47 88.3 1.57 105.77 42.52 6.33 14.83-6.32-14.83 0 0 17.47 40.95-1.56 88.3-42.51 105.77C-256.01 716.86-526.06 832.06-640.79 881c-40.95 17.47-88.31-1.56-105.77-42.51-6.33-14.83 6.32 14.83 0 0-17.47-40.95 1.56-88.31 42.51-105.78 114.73-48.94 384.78-164.14 499.51-213.09z"
          id="e4"
        />

        <path
          d="M-879.35 1014.18c40.98-17.41 88.31 1.69 105.72 42.67 6.3 14.84-6.31-14.84 0 0 17.41 40.97-1.7 88.3-42.67 105.71-211.58 89.9-772.14 328.07-983.72 417.97-40.97 17.41-88.3-1.69-105.71-42.67-6.31-14.84 6.3 14.84 0 0-17.41-40.97 1.69-88.3 42.66-105.71 211.59-89.9 772.14-328.07 983.72-417.97z"
          id="e5"
        />
        <path
          d="M-879.35 1014.18c40.98-17.41 88.31 1.69 105.72 42.67 6.3 14.84-6.31-14.84 0 0 17.41 40.97-1.7 88.3-42.67 105.71-211.58 89.9-772.14 328.07-983.72 417.97-40.97 17.41-88.3-1.69-105.71-42.67-6.31-14.84 6.3 14.84 0 0-17.41-40.97 1.69-88.3 42.66-105.71 211.59-89.9 772.14-328.07 983.72-417.97z"
          id="e6"
        />
      </defs>

      <use xlink:href="#e" opacity=".3" fill="#3dc7fb" />
      <use xlink:href="#e1" opacity=".3" fill="#ff0000" />
      <use xlink:href="#e2" opacity=".3" fill="#ff00a5" />
      <use xlink:href="#e3" opacity=".3" fill="#ffef00" />
      <use xlink:href="#e4" opacity=".3" fill="#0e06bf" />
      <use xlink:href="#e5" opacity=".3" fill="#3dc7fb" />
      <use xlink:href="#e6" opacity=".3" fill="#2def1e" />

      <use
        xlink:href="#e"
        opacity=".3"
        fill-opacity="0"
        stroke="#1500ff"
        stroke-width="0"
      />
      <use
        xlink:href="#e1"
        opacity=".3"
        fill-opacity="0"
        stroke="#1500ff"
        stroke-width="0"
      />
      <use
        xlink:href="#e2"
        opacity=".3"
        fill-opacity="0"
        stroke="#1500ff"
        stroke-width="0"
      />
      <use
        xlink:href="#e3"
        opacity=".3"
        fill-opacity="0"
        stroke="#1500ff"
        stroke-width="0"
      />
      <use
        xlink:href="#e4"
        opacity=".3"
        fill-opacity="0"
        stroke="#efe21e"
        stroke-width="0"
      />
      <use
        xlink:href="#e5"
        opacity=".3"
        fill-opacity="0"
        stroke="#efe21e"
        stroke-width="0"
      />
      <use
        xlink:href="#e6"
        opacity=".3"
        fill-opacity="0"
        stroke="#efe21e"
        stroke-width="0"
      />
    </svg>