<svg xmlns="http://www.w3.org/2000/svg" 
  xmlns:xlink="http://www.w3.org/1999/xlink" viewBox="0 0 1920 1080">
  <defs>
    <path d="M-394.41 746.52c41.62-15.79 88.17 5.15 103.96 46.78 5.72 15.07-5.72-15.08 0 0 15.79 41.62-5.15 88.17-46.78 103.96-116.62 44.24-391.13 148.37-507.75 192.61-41.63 15.8-88.17-5.15-103.96-46.77-5.72-15.08 5.72 15.07 0 0-15.79-41.63 5.15-88.17 46.78-103.96 116.62-44.25 391.12-148.38 507.75-192.62z" id="a"/>
    <path d="M2372.7 3.98L-436.74 1066.27" id="line-one"/>
    <path d="M2556.7 215.48L-252.74 1277.77" id="line-two"/>
    <path d="M2260.72-236.52L-548.72 825.77" id="line-three"/>
  </defs>
  <filter id="aa" x="-445.74" y="-5.02" width="2828.44" height="1081.29" filterUnits="userSpaceOnUse" primitiveUnits="userSpaceOnUse">
    <feFlood/>
    <feComposite in2="SourceAlpha" operator="in"/>
    <feGaussianBlur stdDeviation="1"/>
    <feOffset dx="1" dy="1" result="afterOffset"/>
    <feFlood flood-color="#fff" flood-opacity=".5"/>
    <feComposite in2="afterOffset" operator="in"/>
    <feMorphology operator="dilate" radius="1"/>
    <feComposite in2="SourceAlpha" operator="out"/>
  </filter>
  <path d="M2372.7 3.98L-436.74 1066.27" fill="none" stroke="#fff" filter="url(#a)"/>
  <g>
    <filter id="cc" x="-261.74" y="206.48" width="2828.44" height="1081.29" filterUnits="userSpaceOnUse" primitiveUnits="userSpaceOnUse">
      <feFlood/>
      <feComposite in2="SourceAlpha" operator="in"/>
      <feGaussianBlur stdDeviation="1"/>
      <feOffset dx="1" dy="1" result="afterOffset"/>
      <feFlood flood-color="#fff" flood-opacity=".5"/>
      <feComposite in2="afterOffset" operator="in"/>
      <feMorphology operator="dilate" radius="1"/>
      <feComposite in2="SourceAlpha" operator="out"/>
    </filter>
    <path d="M2556.7 215.48L-252.74 1277.77" fill="none" stroke="#fff" filter="url(#c)"/>
  </g>
  <g>
    <filter id="ee" x="-557.72" y="-245.52" width="2828.44" height="1081.29" filterUnits="userSpaceOnUse" primitiveUnits="userSpaceOnUse">
      <feFlood/>
      <feComposite in2="SourceAlpha" operator="in"/>
      <feGaussianBlur stdDeviation="1"/>
      <feOffset dx="1" dy="1" result="afterOffset"/>
      <feFlood flood-color="#fff" flood-opacity=".5"/>
      <feComposite in2="afterOffset" operator="in"/>
      <feMorphology operator="dilate" radius="1"/>
      <feComposite in2="SourceAlpha" operator="out"/>
    </filter>
    <path d="M2260.72-236.52L-548.72 825.77" fill="none" stroke="#fff" filter="url(#e)"/>
  </g>

</svg>